<?xml version="1.0" encoding="utf-8"?>
<!-- Generator: Adobe Illustrator 16.2.1, SVG Export Plug-In . SVG Version: 6.00 Build 0)  -->
<!DOCTYPE svg PUBLIC "-//W3C//DTD SVG 1.1//EN" "http://www.w3.org/Graphics/SVG/1.1/DTD/svg11.dtd">
<svg version="1.1" id="Layer_1" xmlns="http://www.w3.org/2000/svg" xmlns:xlink="http://www.w3.org/1999/xlink" x="0px" y="0px"
	 width="3146px" height="140px" viewBox="0 0 3146 140" enable-background="new 0 0 3146 140" xml:space="preserve">
<path fill="#FFFFFF" d="M0.717,29.994L0,29.31l14.587-14.456L0.004,0.686l0.71-0.693L16,14.848L0.717,29.994z"/>
<path fill="#FFFFFF" d="M55.026-0.007l0.717,0.684L41.156,15.133l14.583,14.168l-0.71,0.693L39.743,15.139L55.026-0.007z"/>
<g transform="translate(70)">
	<path d="M10.203,29.994L9.486,29.31l14.587-14.456L9.49,0.686l0.71-0.693l15.286,14.855L10.203,29.994z"/>
</g>
<g transform="translate(70)">
	<path d="M64.512-0.007l0.717,0.684L50.642,15.133l14.583,14.168l-0.71,0.693L49.229,15.139L64.512-0.007z"/>
</g>
<g transform="translate(140)">
	<path fill="#FFFFFF" d="M16,7.145h7.126V0H16V7.145z M27.44,7.145h7.123V0H27.44V7.145z M38.874,0v7.145H46V0H38.874z M16,18.572
		h7.126V11.43H16V18.572z M27.44,18.572h7.123V11.43H27.44V18.572z M38.875,18.572H46V11.43h-7.125V18.572z M16,30h7.126v-7.14H16
		V30z M27.44,30h7.123v-7.14H27.44V30z M38.875,30H46v-7.14h-7.125V30z"/>
</g>
<g transform="translate(210)">
	<g>
		<path d="M15,29.996c-8.27,0-15-6.73-15-15s6.73-15,15-15s15,6.73,15,15S23.27,29.996,15,29.996z M15,0.963
			c-7.737,0-14.033,6.297-14.033,14.033c0,7.74,6.296,14.03,14.033,14.03c7.74,0,14.03-6.29,14.03-14.03
			C29.03,7.26,22.738,0.963,15,0.963z M8.95,8.394l12.79,12.79l-0.684,0.685L8.266,9.077L8.95,8.394z M21.063,8.4l0.683,0.686
			L8.94,21.862l-0.683-0.685L21.063,8.4z"/>
	</g>
</g>
<g transform="translate(280)">
	<path fill="#FFFFFF" d="M0.666,20L0,19.31l6.633-6.388c-1.366-1.373-2.21-3.246-2.21-5.308C4.424,3.416,7.918,0,12.214,0
		S20,3.416,20,7.614c0,4.198-3.493,7.614-7.788,7.614c-1.836,0-3.526-0.625-4.86-1.668L0.666,20L0.666,20z M12.212,0.96
		c-3.765,0-6.83,2.984-6.83,6.654c0,3.67,3.064,6.655,6.83,6.655c3.767,0,6.83-2.986,6.83-6.656c0-3.67-3.063-6.655-6.83-6.655V0.96
		z"/>
</g>
<g transform="translate(350)">
	<g>
		<path fill="#FFFFFF" d="M15,29.996c-8.27,0-15-6.73-15-15s6.73-15,15-15s15,6.73,15,15S23.27,29.996,15,29.996z M15,0.963
			c-7.737,0-14.033,6.297-14.033,14.033c0,7.738,6.296,14.03,14.033,14.03c7.738,0,14.03-6.292,14.03-14.03
			C29.03,7.26,22.737,0.963,15,0.963z M21.056,21.87L8.266,9.077L8.95,8.393l12.79,12.79L21.056,21.87z M8.943,21.864L8.26,21.18
			l12.8-12.782l0.688,0.684L8.943,21.864z"/>
	</g>
</g>
<g transform="translate(420)">
	<g>
		<path d="M1.012,0.002l28.669,28.666l-1.015,1.014L0,1.014L1.012,0.002z M28.664-0.001l1.013,1.014L1.021,29.692L0,28.679
			L28.664-0.001z"/>
	</g>
</g>
<g transform="translate(490)">
	<g>
		<path d="M2.524,0.002l27.722,27.719l-1.959,1.959L0.564,1.964L2.524,0.002z M28.284,0.002l1.959,1.958L2.53,29.688l-1.96-1.959
			L28.284,0.002z"/>
	</g>
</g>
<g transform="translate(560)">
	<g>
		<path fill="#FFFFFF" d="M35.03,29.683L7.309,1.96L9.28,0.002l27.71,27.719L35.03,29.683z M9.274,29.686l-1.959-1.958L35.026,0.005
			l1.959,1.959L9.274,29.686z"/>
	</g>
</g>
<g transform="translate(630)">
	<g>
		<path fill="#FFFFFF" d="M36.75,29.683L8.084,1.014l1.009-1.012l28.672,28.666L36.75,29.683z M9.108,29.698L8.09,28.683
			L36.74-0.004l1.016,1.012L9.108,29.698z"/>
	</g>
</g>
<g transform="translate(700)">
	<path d="M1,7.145h7.126V0H1V7.145z M12.44,7.145h7.122V0H12.44V7.145z M23.874,0v7.145H31V0H23.874L23.874,0z M1,18.572h7.126
		V11.43H1V18.572z M12.44,18.572h7.122V11.43H12.44V18.572z M23.875,18.572H31V11.43h-7.125V18.572z M1,30h7.126v-7.14H1V30z
		 M12.44,30h7.122v-7.14H12.44V30z M23.875,30H31v-7.14h-7.125V30z"/>
</g>
<g transform="translate(770)">
	<g>
		<path d="M15,29.544c-8.144,0-14.771-6.628-14.771-14.772C0.229,6.625,6.856,0,15,0s14.771,6.626,14.771,14.772
			C29.771,22.916,23.144,29.544,15,29.544z M15,0.953c-7.619,0-13.819,6.2-13.819,13.819S7.38,28.591,15,28.591
			s13.819-6.199,13.819-13.819C28.819,7.153,22.62,0.953,15,0.953z M14.527,12.627h0.957v9.94h-0.957V12.627z M14.527,6.97h0.957
			v2.826h-0.957V6.97z"/>
	</g>
</g>
<g transform="translate(840)">
	<g>
		<path fill="#FFFFFF" d="M15,30C6.73,30,0,23.27,0,15C0,6.727,6.73,0,15,0s15,6.728,15,15C30,23.27,23.27,30,15,30z M15,0.968
			C7.264,0.968,0.968,7.263,0.968,15c0,7.736,6.295,14.032,14.032,14.032c7.736,0,14.032-6.294,14.032-14.032
			C29.032,7.263,22.736,0.968,15,0.968z M14.52,12.822h0.979v10.094H14.52V12.822z M14.52,7.077h0.979v2.87H14.52V7.077z"/>
	</g>
</g>
<g transform="translate(910)">
	<path fill="#FFFFFF" d="M-4.275,30.03l-1.922-1.988l9.079-8.741c-1.812-2.048-2.908-4.715-2.908-7.628
		C-0.026,5.234,5.325,0,11.905,0c6.579,0,11.927,5.235,11.927,11.671s-5.349,11.672-11.927,11.672c-2.593,0-4.997-0.815-6.956-2.192
		L-4.275,30.03z M11.905,2.766c-5.052,0-9.163,3.994-9.163,8.904s4.104,8.904,9.163,8.904c5.049,0,9.161-3.994,9.161-8.904
		S16.954,2.766,11.905,2.766z"/>
</g>
<g transform="translate(980)">
	<path d="M-8.108,30.03l-1.922-1.988l9.08-8.741c-1.812-2.048-2.908-4.715-2.908-7.628C-3.858,5.234,1.492,0,8.071,0
		S20,5.235,20,11.671S14.651,23.343,8.071,23.343c-2.593,0-4.996-0.815-6.955-2.192L-8.108,30.03z M8.071,2.766
		c-5.05,0-9.161,3.994-9.161,8.904s4.104,8.904,9.161,8.904c5.05,0,9.159-3.994,9.159-8.904S13.122,2.766,8.071,2.766z"/>
</g>
<g transform="translate(1050)">
	<g>
		<path d="M15,30C6.729,30,0,23.27,0,15S6.729,0,15,0c8.27,0,15,6.73,15,15S23.27,30,15,30z M15,0.967
			C7.262,0.967,0.968,7.262,0.968,15c0,7.736,6.294,14.033,14.032,14.033S29.032,22.736,29.032,15
			C29.032,7.262,22.738,0.967,15,0.967z M14.52,7.083h0.979v15.834H14.52V7.083z M7.084,14.517h15.83v0.967H7.085L7.084,14.517z"/>
	</g>
</g>
<g transform="translate(1120)">
	<g>
		<path fill="#FFFFFF" d="M15,30C6.729,30,0,23.27,0,15S6.729,0,15,0c8.27,0,15,6.73,15,15S23.27,30,15,30z M15,0.967
			C7.262,0.967,0.968,7.262,0.968,15c0,7.736,6.294,14.033,14.032,14.033S29.032,22.736,29.032,15
			C29.032,7.262,22.738,0.967,15,0.967z M14.52,7.083h0.979v15.834H14.52V7.083z M7.084,14.517h15.83v0.967H7.085L7.084,14.517z"/>
	</g>
</g>
<g transform="translate(1190)">
	<g>
		<path fill="#231F20" d="M15.5,30.5c-8.27,0-15-6.73-15-15s6.73-15,15-15s15,6.73,15,15S23.77,30.5,15.5,30.5z M15.5,1.467
			C7.764,1.467,1.468,7.762,1.468,15.5S7.764,29.53,15.5,29.53c7.738,0,14.033-6.294,14.033-14.03S23.238,1.466,15.5,1.467
			L15.5,1.467z M11.168,22.283V8.713l12.316,6.807L11.168,22.283z M12.138,10.355v10.293l9.341-5.13L12.138,10.355z"/>
	</g>
</g>
<g transform="translate(1260)">
	<g>
		<path fill="#FFFFFF" d="M15.5,30.5c-8.27,0-15-6.73-15-15s6.73-15,15-15s15,6.73,15,15S23.77,30.5,15.5,30.5z M15.5,1.467
			C7.764,1.467,1.468,7.762,1.468,15.5S7.764,29.53,15.5,29.53c7.738,0,14.033-6.294,14.033-14.03S23.238,1.466,15.5,1.467
			L15.5,1.467z M11.168,22.283V8.713l12.316,6.807L11.168,22.283z M12.138,10.355v10.293l9.341-5.13L12.138,10.355z"/>
	</g>
</g>
<g transform="translate(1330)">
	<path fill="#A5A8AB" d="M-4.968,31L-6,29.931l10.281-9.902c-2.118-2.128-3.426-5.031-3.426-8.227C0.857,5.295,6.273,0,12.932,0
		C19.584,0,25,5.295,25,11.802c0,6.509-5.415,11.803-12.071,11.803c-2.846,0-5.466-0.97-7.534-2.588L-4.966,31H-4.968z
		 M12.929,1.488c-5.835,0-10.587,4.625-10.587,10.314c0,5.688,4.75,10.316,10.587,10.316c5.838,0,10.586-4.628,10.586-10.316
		c0-5.689-4.751-10.314-10.59-10.314H12.929z"/>
</g>
<g transform="translate(1400)">
	<path d="M50,50L0.062,49.97L0,0h50V50z"/>
	<path fill="#FFFFFF" d="M34.816,29.624c1.979-1.44,3.184-3.3,3.184-5.33C38,19.71,31.92,16,24.408,16
		c-7.508,0-13.592,3.71-13.592,8.294c0,4.58,6.083,8.292,13.592,8.292c1.646,0,3.228-0.187,4.688-0.517l7.7,3.603l-1.979-6.05
		L34.816,29.624L34.816,29.624z"/>
</g>
<g>
	<polygon points="1542.545,17 1517.545,17 1530.05,27 	"/>
	<path fill="#FFFFFF" d="M1506,1v48h48V0.99L1506,1z M1542.545,17l-12.495,10l-12.505-10H1542.545z M1543.546,35h-27V19
		l13.504,10.784L1543.546,19V35z"/>
	<polygon points="1516.546,19 1516.546,35 1543.546,35 1543.546,19 1530.05,29.784 	"/>
</g>
<g transform="translate(1610)">
	<path d="M50,50L0.062,49.97L0,0h50V50z"/>
	<path fill="#FFFFFF" d="M37.545,17h-25L25.05,27L37.545,17z M25.05,29.784L11.546,19v16h27V19L25.05,29.784z"/>
</g>
<g>
	<path fill="#FFFFFF" d="M1716,1v48h48V0.99L1716,1z M1746.036,20.425l-0.521,4.074h-4.017v14h-4.99v-14l-2.981-0.008l-0.023-3.992
		h3.017v-3c0-1.206-0.063-2.999,0.812-4.146c0.918-1.215,2.062-1.9,4.234-1.9c3.248,0,5.025,0.506,5.025,0.506l-0.703,4.153
		c0,0-1.166-0.337-2.26-0.337c-1.09,0-2.116,0.39-2.117,1.48v3.17H1746.036z"/>
	<path d="M1743.626,15.775c1.094,0,2.26,0.337,2.26,0.337l0.703-4.153c0,0-1.78-0.506-5.028-0.506c-2.172,0-3.313,0.685-4.231,1.9
		c-0.876,1.147-0.812,2.94-0.812,4.146v3h-3.015l0.021,3.992l2.983,0.008v14h4.99v-14h4.017l0.521-4.074h-4.527v-3.17
		C1741.51,16.165,1742.536,15.775,1743.626,15.775z"/>
</g>
<g transform="translate(1820)">
	<path opacity="0.75" fill="#FFFFFF" enable-background="new    " d="M39.264,0.006h50v50h-50V0.006z"/>
	<g>
		<path fill="#231F20" d="M78.527,39.995H51.523v-0.99h26.018V12.908h0.985L78.527,39.995z M75.549,37.015H48.528V9.995H75.55
			L75.549,37.015L75.549,37.015z M49.52,36.025h25.039v-25.04H49.52V36.025z"/>
	</g>
	<path fill="#231F20" d="M55.778,26.233h1.353v-3.498c0-1.258-0.604-1.788-1.359-2.087l1.354-1.62h2.019v7.205h1.229v1.815h-4.589
		v-1.815H55.778z M60.943,26.015v-0.558h2.062v0.336c0,0.272,0.114,0.44,0.337,0.44h3.172V24.42h-2.76v-1.815h2.757v-1.762h-3.095
		c-0.225,0-0.336,0.17-0.336,0.414v0.43h-2.062v-0.623c0-1.335,0.946-2.036,2.11-2.036h3.264c1.062,0,2.182,0.7,2.182,2.036v1.218
		c0,0.7-0.602,1.14-1.104,1.23c0.505,0.078,1.104,0.532,1.104,1.23v1.272c0,1.334-0.939,2.034-2.105,2.034h-3.407
		C61.888,28.048,60.943,27.348,60.943,26.015z"/>
</g>
<g>
	<polygon fill="none" points="1951.407,11 1951.407,11 1951.408,11 	"/>
	<path fill="#231F20" d="M1951.407,11.002V11c-7.989,0-12.021,5.73-12.021,10.508c0,2.896,1.095,5.47,3.442,6.432
		c0.386,0.152,0.729,0.004,0.843-0.426c0.08-0.295,0.267-1.04,0.343-1.348c0.115-0.422,0.07-0.57-0.23-0.937
		c-0.684-0.798-1.108-1.836-1.108-3.303c0-4.248,3.187-8.055,8.28-8.055c4.52,0,7,2.76,7,6.448c0,4.85-2.146,8.944-5.33,8.944
		c-1.771,0-3.08-1.455-2.658-3.244c0.51-2.13,1.483-4.43,1.483-5.968c0-1.376-0.736-2.525-2.271-2.525
		c-1.799,0-3.239,1.86-3.239,4.354c0,1.59,0.532,2.664,0.532,2.664l-2.157,9.166c-0.646,2.72-0.101,6.054-0.057,6.394
		c0.03,0.196,0.284,0.244,0.4,0.098c0.167-0.22,2.312-2.867,3.029-5.508c0.205-0.746,1.188-4.623,1.188-4.623
		c0.58,1.116,2.29,2.097,4.105,2.097c5.4,0,9.068-4.928,9.068-11.526C1962.061,15.648,1957.827,11.002,1951.407,11.002z"/>
	<path fill="#FFFFFF" d="M1926,1v48h48V0.99L1926,1z M1952.982,32.168c-1.816,0-3.526-0.981-4.106-2.097
		c0,0-0.983,3.877-1.188,4.623c-0.721,2.641-2.861,5.288-3.028,5.508c-0.116,0.146-0.37,0.098-0.4-0.098
		c-0.044-0.34-0.592-3.674,0.058-6.394l2.155-9.166c0,0-0.53-1.074-0.53-2.664c0-2.494,1.439-4.354,3.237-4.354
		c1.534,0,2.271,1.149,2.271,2.525c0,1.538-0.979,3.838-1.483,5.968c-0.422,1.789,0.892,3.244,2.658,3.244
		c3.187,0,5.33-4.094,5.33-8.944c0-3.688-2.479-6.448-7-6.448c-5.097,0-8.28,3.807-8.28,8.055c0,1.467,0.43,2.505,1.108,3.303
		c0.304,0.367,0.349,0.515,0.231,0.937c-0.076,0.308-0.264,1.053-0.344,1.348c-0.113,0.43-0.457,0.578-0.843,0.426
		c-2.349-0.962-3.442-3.536-3.442-6.432c0-4.778,4.031-10.507,12.021-10.508l0,0h0.001h-0.001v0.002
		c6.42,0,10.652,4.646,10.646,9.64C1962.053,27.24,1958.385,32.168,1952.982,32.168z"/>
</g>
<g transform="translate(2030)">
	<path fill="#DE2127" d="M50,50L0.062,49.97L0,0h50V50z"/>
	<path fill="#FFFFFF" d="M26.408,11c-7.99,0-12.021,5.73-12.021,10.508c0,2.896,1.094,5.47,3.442,6.432
		c0.386,0.152,0.729,0.004,0.843-0.426c0.08-0.295,0.266-1.04,0.343-1.348c0.115-0.422,0.07-0.57-0.241-0.937
		c-0.674-0.798-1.104-1.836-1.104-3.303c0-4.248,3.182-8.055,8.28-8.055c4.52,0,7,2.76,7,6.448c0,4.85-2.146,8.944-5.33,8.944
		c-1.767,0-3.08-1.455-2.658-3.244c0.508-2.13,1.479-4.43,1.479-5.968c0-1.376-0.732-2.525-2.271-2.525
		c-1.797,0-3.242,1.86-3.242,4.354c0,1.59,0.535,2.664,0.535,2.664l-2.16,9.166c-0.646,2.72-0.096,6.054-0.052,6.394
		c0.03,0.196,0.284,0.244,0.397,0.098c0.17-0.22,2.312-2.867,3.037-5.508c0.2-0.746,1.188-4.623,1.188-4.623
		c0.58,1.116,2.29,2.097,4.104,2.097c5.409,0,9.077-4.928,9.077-11.526c0.003-4.994-4.226-9.64-10.646-9.64V11z"/>
</g>
<g transform="translate(2135)">
	<path fill="#68ACD2" d="M50,50L0.062,49.97L0,0h50V50z"/>
	<path fill="#FFFFFF" d="M37.54,16.86c-1.042,0.473-2.163,0.774-3.343,0.875c-0.812-1.083-2.062-1.835-3.512-1.993
		c-2.78-0.303-5.28,1.712-5.584,4.498c-0.043,0.396-0.041,0.785,0.004,1.163c-4.164-0.668-7.664-3.076-9.823-6.403
		c-0.513,0.703-0.86,1.54-0.958,2.467c-0.188,1.75,0.533,3.39,1.79,4.442c-0.82-0.116-1.583-0.43-2.22-0.88l-0.018,0.062
		c-0.268,2.445,1.246,4.673,3.521,5.386c-0.438,0.072-0.896,0.082-1.354,0.033c-0.319-0.035-0.64-0.1-0.938-0.19
		c0.435,2.07,2.14,3.732,4.345,4.012c-1.872,1.167-4.142,1.736-6.497,1.48c-0.406-0.046-0.812-0.112-1.195-0.2
		c2.076,1.67,4.646,2.796,7.486,3.104c9.273,1.008,15.184-6.127,15.896-12.797c0.027-0.22,0.058-0.437,0.062-0.655
		c1.057-0.603,2.014-1.396,2.8-2.335c-0.95,0.304-1.952,0.47-2.979,0.48C36.13,18.9,37.037,18,37.54,16.86z"/>
</g>
<g>
	<polygon fill="none" points="2277.539,16.598 2277.537,16.601 2277.54,16.6 	"/>
	<path fill="#FFFFFF" d="M2241,1v48h48V0.99L2241,1z M2275.199,21.003c-0.008,0.218-0.035,0.435-0.062,0.655
		c-0.712,6.67-6.619,13.805-15.896,12.797c-2.843-0.308-5.41-1.434-7.486-3.104c0.383,0.088,0.789,0.154,1.195,0.2
		c2.355,0.257,4.625-0.312,6.497-1.479c-2.205-0.28-3.91-1.942-4.342-4.012c0.299,0.09,0.616,0.155,0.938,0.19
		c0.461,0.049,0.916,0.039,1.354-0.033c-2.271-0.713-3.783-2.941-3.519-5.386l0.015-0.062c0.637,0.45,1.399,0.764,2.221,0.88
		c-1.258-1.052-1.979-2.692-1.791-4.442c0.101-0.927,0.445-1.764,0.959-2.467c2.158,3.327,5.658,5.735,9.822,6.403
		c-0.045-0.378-0.047-0.767-0.004-1.163c0.305-2.786,2.805-4.801,5.584-4.498c1.449,0.158,2.699,0.91,3.512,1.993
		c1.182-0.101,2.302-0.401,3.343-0.874c0.001-0.001,0.002-0.002,0.002-0.003l0.001,0.002c-0.001,0-0.002,0-0.003,0.001
		c-0.5,1.135-1.41,2.035-2.521,2.547c1.029-0.01,2.031-0.176,2.981-0.48C2277.213,19.607,2276.256,20.4,2275.199,21.003z"/>
	<path d="M2277.537,16.601c-1.041,0.473-2.161,0.773-3.34,0.874c-0.812-1.083-2.062-1.835-3.512-1.993
		c-2.78-0.303-5.28,1.712-5.584,4.498c-0.043,0.396-0.041,0.785,0.004,1.163c-4.164-0.668-7.664-3.076-9.823-6.403
		c-0.513,0.703-0.86,1.54-0.958,2.467c-0.188,1.75,0.533,3.39,1.79,4.442c-0.82-0.116-1.583-0.43-2.22-0.88l-0.018,0.062
		c-0.27,2.445,1.246,4.673,3.521,5.386c-0.438,0.072-0.896,0.082-1.354,0.033c-0.319-0.035-0.64-0.1-0.938-0.19
		c0.434,2.07,2.139,3.732,4.344,4.012c-1.872,1.167-4.141,1.736-6.497,1.479c-0.406-0.046-0.812-0.112-1.195-0.2
		c2.076,1.67,4.646,2.796,7.486,3.104c9.273,1.008,15.184-6.127,15.896-12.797c0.026-0.22,0.057-0.437,0.062-0.655
		c1.057-0.603,2.014-1.396,2.8-2.335c-0.949,0.304-1.951,0.47-2.979,0.48C2276.127,18.636,2277.037,17.736,2277.537,16.601z"/>
</g>
<g>
	<polygon fill="#FFFFFF" points="2379.816,29.624 2379.816,29.624 2379.816,29.621 	"/>
	<path d="M2383,24.294c0-4.584-6.08-8.294-13.592-8.294c-7.508,0-13.592,3.71-13.592,8.294c0,4.58,6.082,8.292,13.592,8.292
		c1.647,0,3.228-0.187,4.688-0.517l7.7,3.602l-1.979-6.047l0,0v-0.003v0.002C2381.795,28.184,2383,26.324,2383,24.294z"/>
	<path fill="#FFFFFF" d="M2346,1v48h48V0.99L2346,1z M2381.796,35.671l-7.7-3.602c-1.46,0.33-3.037,0.517-4.688,0.517
		c-7.51,0-13.592-3.712-13.592-8.292c0-4.584,6.084-8.294,13.592-8.294c7.512,0,13.592,3.71,13.592,8.294
		c0,2.03-1.205,3.89-3.184,5.33L2381.796,35.671z"/>
</g>
<g transform="translate(2450)">
	<path fill="#3C589A" d="M50,50L0.062,49.97L0,0h50V50z"/>
	<path fill="#FFFFFF" d="M28.61,15.775c1.093,0,2.26,0.337,2.26,0.337l0.702-4.153c0,0-1.78-0.506-5.027-0.506
		c-2.172,0-3.325,0.685-4.243,1.9C21.427,14.5,21.5,16.295,21.5,17.499v3h-3.016l0.021,3.992l2.993,0.008v14h5v-14h4l0.52-4.074
		h-4.521v-3.17C26.493,16.165,27.52,15.775,28.61,15.775L28.61,15.775z"/>
</g>
<g transform="translate(2555)">
	<g>
		<path fill="#FFFFFF" d="M36.268,14.615v2.28h-9.535v-2.28h3.418v-9.23h-3.418v-2.28h9.535v2.28h-3.431v9.23H36.268z M67.561,5.385
			v-2.28h11.746V7.52h-2.479V5.386h-4.762v3.303h3.785v2.207h-3.785v3.72h4.896v-2.42h2.479v4.7H67.562v-2.28h1.854v-9.23
			L67.561,5.385z"/>
		<g>
			<path fill="#FFFFFF" d="M54.082,5.447h-4.52v3.84h4.52c0.63,0,0.822-0.083,0.93-0.184c0.195-0.184,0.398-0.546,0.4-1.787
				c0-1.23-0.2-1.537-0.393-1.71c-0.11-0.1-0.312-0.16-0.938-0.16L54.082,5.447z M42,0.008v20h21v-20H42z M55.545,16.896
				c-0.14-0.926-0.225-2.078-0.257-3.535c-0.024-1.077-0.154-1.335-0.41-1.556c-0.24-0.21-0.567-0.277-1.378-0.277h-3.943v5.37
				h-2.853V3.104h8.435c1.049,0,1.736,0.157,2.188,0.606c0.556,0.557,0.887,1.295,0.887,3.315c0,2.46-0.688,3.21-2.278,3.46v0.047
				c1.438,0.286,2.07,0.622,2.146,2.633c0.062,1.753,0.138,2.98,0.218,3.73L55.545,16.896L55.545,16.896z M0,20h21V0H0V20z
				 M4.35,3.17l1.866,10.928h0.048l2.202-10.13C8.598,3.3,8.842,3.131,9.477,3.131h1.438c0.646,0,0.877,0.158,1.01,0.84
				l2.188,10.128h0.054L16.03,3.17h2.64L15.965,16.3c-0.107,0.573-0.325,0.722-0.97,0.722h-1.833c-0.645,0-0.844-0.148-0.971-0.748
				L10.13,6.757h-0.047L8.03,16.274c-0.125,0.6-0.354,0.748-0.968,0.748H5.208c-0.644,0-0.86-0.143-0.968-0.722L1.518,3.17H4.35z"/>
		</g>
		<path fill="#FFFFFF" d="M96.943,5.853c-0.44-0.348-0.881-0.398-1.918-0.398H91.26v9.105h3.766c1.023,0,1.513-0.076,1.929-0.41
			c0.521-0.416,0.767-1.174,0.767-4.134C97.71,7.021,97.475,6.273,96.943,5.853z M84,0.008v20h20v-20H84z M99.055,15.88
			c-0.832,0.737-1.896,1.024-3.852,1.024h-6.795V3.112h6.795c1.95,0,3.02,0.288,3.852,1.024c0.98,0.863,1.454,2.46,1.454,5.872
			C100.509,13.408,100.033,15.018,99.055,15.88L99.055,15.88z"/>
	</g>
</g>
<g>
	<path fill="none" d="M2744.556,11.528h3.944c0.811,0,1.14,0.07,1.378,0.278c0.256,0.22,0.386,0.48,0.41,1.557
		c0.032,1.457,0.118,2.61,0.257,3.535h2.748c-0.08-0.75-0.154-1.98-0.218-3.732v-0.001c-0.072-2.01-0.708-2.347-2.146-2.633v-0.047
		c1.593-0.25,2.28-1,2.28-3.46c0-2.02-0.33-2.758-0.887-3.314c-0.448-0.448-1.139-0.605-2.188-0.605h-8.435v13.792h2.853v-5.37
		H2744.556z M2744.562,5.448h4.52c0.63,0,0.83,0.057,0.938,0.157c0.19,0.174,0.396,0.48,0.396,1.71
		c-0.003,1.242-0.206,1.604-0.398,1.788l0,0c-0.104,0.1-0.303,0.185-0.933,0.185h-4.521L2744.562,5.448L2744.562,5.448z"/>
	<path fill="none" d="M2794.055,4.136c-0.832-0.736-1.896-1.024-3.852-1.024h-6.795v13.792h6.795c1.951,0,3.02-0.287,3.852-1.024
		h-0.001c0.979-0.862,1.455-2.472,1.455-5.872C2795.509,6.596,2795.035,4.999,2794.055,4.136z M2791.943,14.15
		c-0.416,0.334-0.896,0.41-1.918,0.41h-3.771V5.455h3.771c1.037,0,1.478,0.05,1.918,0.398c0.531,0.42,0.767,1.168,0.767,4.163
		C2792.71,12.976,2792.463,13.734,2791.943,14.15z"/>
	<polygon points="2721.732,5.385 2725.15,5.385 2725.15,14.615 2721.732,14.615 2721.732,16.895 2731.268,16.895 2731.268,14.615 
		2727.837,14.615 2727.837,5.385 2731.268,5.385 2731.268,3.105 2721.732,3.105 	"/>
	<path d="M2695,20h21V0h-21V20z M2699.35,3.17l1.866,10.927h0.048l2.202-10.126c0.132-0.67,0.376-0.84,1.009-0.84h1.438
		c0.646,0,0.877,0.157,1.01,0.837l2.193,10.13h0.048l1.875-10.928h2.646l-2.703,13.13c-0.104,0.574-0.324,0.722-0.971,0.722h-1.834
		c-0.646,0-0.848-0.148-0.973-0.748l-2.062-9.517h-0.049l-2.054,9.517c-0.127,0.6-0.354,0.748-0.976,0.748h-1.854
		c-0.646,0-0.86-0.142-0.972-0.722l-2.724-13.13H2699.35z"/>
	<path d="M2737,20.008h21v-20h-21V20.008z M2741.703,3.106h8.435c1.05,0,1.738,0.157,2.188,0.605
		c0.557,0.556,0.887,1.294,0.887,3.314c0,2.46-0.688,3.21-2.28,3.46v0.047c1.438,0.286,2.072,0.623,2.146,2.633v0.001
		c0.062,1.752,0.138,2.982,0.218,3.732h-2.748c-0.139-0.925-0.225-2.078-0.257-3.535c-0.024-1.077-0.154-1.337-0.41-1.557
		c-0.238-0.208-0.567-0.278-1.378-0.278h-3.944v5.37h-2.853V3.106H2741.703z"/>
	<path d="M2750.012,9.103L2750.012,9.103c0.195-0.184,0.398-0.546,0.401-1.788c0-1.23-0.203-1.536-0.396-1.71
		c-0.104-0.1-0.308-0.157-0.938-0.157h-4.521v3.84h4.521C2749.712,9.288,2749.905,9.203,2750.012,9.103z"/>
	<polygon points="2771.958,14.616 2767.066,14.616 2767.066,10.896 2770.852,10.896 2770.852,8.689 2767.066,8.689 2767.066,5.386 
		2771.823,5.386 2771.823,7.52 2774.307,7.52 2774.307,3.105 2762.561,3.105 2762.561,5.385 2764.422,5.386 2764.422,14.616 
		2762.562,14.616 2762.562,16.896 2774.438,16.896 2774.438,12.196 2771.958,12.196 	"/>
	<path d="M2779,0.008v20h20v-20H2779z M2794.055,15.88c-0.832,0.737-1.896,1.024-3.852,1.024h-6.795V3.112h6.795
		c1.949,0,3.02,0.288,3.852,1.024c0.98,0.863,1.454,2.46,1.454,5.872C2795.509,13.408,2795.033,15.018,2794.055,15.88
		L2794.055,15.88z"/>
	<path d="M2791.943,5.853c-0.44-0.348-0.881-0.398-1.918-0.398h-3.771v9.105h3.771c1.021,0,1.502-0.076,1.918-0.41
		c0.52-0.416,0.767-1.174,0.767-4.134C2792.71,7.021,2792.475,6.273,2791.943,5.853z"/>
</g>
<g>
	<path d="M1821.725,14.912c0,0.452-0.137,0.77-0.387,0.955l-5.061,4.958c-0.271,0.268-0.521,0.336-0.904,0.336h-1.944
		c-0.671,0-0.805-0.77-0.312-1.207l4.065-3.77h-7.002c-0.771,0-1.141-0.368-1.141-1.155v-0.302c0-0.787,0.368-1.155,1.141-1.155
		h7.002l-4.065-3.771c-0.485-0.438-0.354-1.208,0.312-1.208h1.944c0.386,0,0.637,0.066,0.904,0.335l5.061,4.959
		c0.251,0.185,0.387,0.503,0.387,0.955V14.912z M1829.881,14.877c0-8.008-6.491-14.5-14.5-14.5c-8.007,0-14.5,6.492-14.5,14.5
		s6.493,14.5,14.5,14.5C1823.39,29.377,1829.881,22.885,1829.881,14.877"/>
</g>
<g>
	<rect x="2835.622" y="-0.354" opacity="0.75" fill="#FFFFFF" enable-background="new    " width="50" height="50"/>
	<path fill="#D24835" d="M2885.622,49.646l-49.938-0.031l-0.062-49.969h50V49.646z"/>
	<g>
		<path fill="#FFFFFF" d="M2873.752,22.636h-3.218v-3.218h-2.589v3.218h-3.22v2.588h3.22v3.217h2.589v-3.217h3.218V22.636z
			 M2861.729,26.532c-0.75-0.529-2.177-1.813-2.177-2.571c0-0.887,0.254-1.322,1.588-2.365c1.363-1.068,2.334-2.57,2.334-4.316
			c0-2.08-0.929-4.104-2.666-4.774h2.621l1.852-1.336h-8.265c-3.705,0-7.192,2.808-7.192,6.059c0,3.323,2.523,6.005,6.296,6.005
			c0.263,0,0.517-0.006,0.767-0.021c-0.243,0.467-0.421,0.995-0.421,1.541c0,0.924,0.497,1.674,1.125,2.286
			c-0.475,0-0.935,0.016-1.433,0.016c-4.591,0-8.122,2.922-8.122,5.955c0,2.982,3.873,4.852,8.46,4.852
			c5.23,0,8.122-2.969,8.122-5.951C2864.617,29.511,2863.911,28.075,2861.729,26.532 M2857.312,22.392
			c-2.129-0.063-4.153-2.383-4.521-5.179s1.062-4.938,3.188-4.874c2.129,0.063,4.154,2.308,4.521,5.104
			C2860.869,20.238,2859.441,22.456,2857.312,22.392 M2856.479,36.538c-3.174,0-5.465-2.006-5.465-4.42
			c0-2.365,2.842-4.334,6.018-4.299c0.738,0.008,1.431,0.127,2.057,0.33c1.721,1.199,2.955,1.875,3.305,3.238
			c0.065,0.277,0.104,0.562,0.104,0.852C2862.493,34.653,2860.938,36.538,2856.479,36.538"/>
	</g>
</g>
<g>
	<rect x="2909.021" y="-0.484" opacity="0.75" fill="#FFFFFF" enable-background="new    " width="50" height="50"/>
	<path fill="#527FA3" d="M2959.021,49.516l-49.938-0.031l-0.062-49.969h50V49.516z"/>
	<g>
		<path fill="#FFFFFF" d="M2943.375,33.09c0,0.371-0.303,0.672-0.674,0.672h-17.305c-0.371,0-0.675-0.301-0.675-0.672V22.61h2.257
			c-0.17,0.616-0.262,1.265-0.262,1.934c0,4.033,3.287,7.313,7.33,7.313c4.041,0,7.33-3.28,7.33-7.313
			c0-0.669-0.09-1.317-0.26-1.934h2.256L2943.375,33.09L2943.375,33.09z M2934.049,19.919c2.562,0,4.635,2.07,4.635,4.624
			c0,2.554-2.072,4.624-4.635,4.624c-2.559,0-4.633-2.068-4.633-4.624C2929.416,21.989,2931.49,19.919,2934.049,19.919
			 M2938.713,15.884c0-0.371,0.301-0.672,0.674-0.672h3.258c0.371,0,0.676,0.301,0.676,0.672v3.252c0,0.371-0.305,0.672-0.676,0.672
			h-3.258c-0.373,0-0.674-0.301-0.674-0.672V15.884L2938.713,15.884z M2943.205,12.466h-18.367c-1.584,0-2.865,1.279-2.865,2.858
			v18.381c0,1.58,1.281,2.857,2.865,2.857h18.367c1.582,0,2.865-1.277,2.865-2.857v-18.38
			C2946.07,13.745,2944.787,12.466,2943.205,12.466"/>
	</g>
</g>
<g>
	<rect x="2981.48" opacity="0.75" fill="#FFFFFF" enable-background="new    " width="50" height="50"/>
	<path fill="#31506D" d="M3031.48,50l-49.938-0.031L2981.48,0h50V50z"/>
	<g>
		<path fill="#FFFFFF" d="M3007.508,10.836v6.906h6.479v4.288h-6.479v7.006c0,1.586,0.084,2.601,0.252,3.05
			c0.166,0.452,0.479,0.811,0.938,1.081c0.602,0.36,1.293,0.54,2.071,0.54c1.384,0,2.759-0.451,4.127-1.35v4.312
			c-1.17,0.548-2.226,0.935-3.173,1.153c-0.944,0.226-1.969,0.335-3.067,0.335c-1.25,0-2.354-0.157-3.312-0.474
			s-1.778-0.767-2.454-1.352c-0.679-0.583-1.149-1.206-1.41-1.861c-0.263-0.658-0.394-1.611-0.394-2.859V22.03h-3.021v-3.865
			c1.075-0.351,1.993-0.851,2.76-1.501c0.765-0.65,1.382-1.432,1.843-2.345c0.463-0.912,0.78-2.073,0.955-3.483H3007.508z"/>
	</g>
</g>
<g>
	<rect x="3050.634" opacity="0.75" fill="#FFFFFF" enable-background="new    " width="50" height="50"/>
	<path fill="#E72C2E" d="M3100.629,50l-49.938-0.031L3050.629,0h50V50z"/>
	<path fill="#FFFFFF" d="M3088.291,19.109c-0.496-1.99-1.431-2.758-3.148-3.035c-0.99-0.146-5.746-0.333-9.521-0.333h0.017
		c-3.773,0-8.529,0.187-9.521,0.333c-1.719,0.277-2.65,1.045-3.148,3.035c-0.166,0.67-0.397,4.338-0.397,5.738v0.307
		c0,1.398,0.231,5.066,0.397,5.736c0.498,1.992,1.431,2.76,3.148,3.035c0.992,0.145,5.748,0.332,9.521,0.332h-0.017
		c3.772,0,8.529-0.188,9.521-0.332c1.721-0.275,2.652-1.043,3.148-3.035c0.168-0.67,0.396-4.338,0.396-5.736v-0.307
		C3088.689,23.447,3088.459,19.779,3088.291,19.109z M3072.916,29.598v-9.582l7.573,4.854L3072.916,29.598z"/>
</g>
</svg>
