<?xml version="1.0" encoding="UTF-8"?>
<svg width="736px" height="216px" viewBox="0 0 736 216" version="1.1" xmlns="http://www.w3.org/2000/svg" xmlns:xlink="http://www.w3.org/1999/xlink">
    <!-- Generator: Sketch 49.2 (51160) - http://www.bohemiancoding.com/sketch -->
    <title>coreos-wordmark-horiz-color</title>
    <desc>Created with Sketch.</desc>
    <defs></defs>
    <g id="Page-1" stroke="none" stroke-width="1" fill="none" fill-rule="evenodd">
        <g id="coreos-wordmark-horiz-color" fill-rule="nonzero">
            <g id="Group">
                <path d="M108.168,0.527 C48.898,0.527 0.689,48.739 0.689,108 C0.689,167.265 48.898,215.474 108.168,215.474 C167.42,215.474 215.633,167.265 215.633,108 C215.633,48.739 167.42,0.527 108.168,0.527 Z" id="Shape" fill="#53A3DA"></path>
                <path d="M108.168,10.389 C90.885,10.389 76.227,38.034 70.933,76.458 C70.764,77.694 70.6,78.945 70.455,80.204 C69.732,86.251 69.242,92.539 68.997,99.012 C68.88,101.974 68.822,104.968 68.822,108 C68.822,111.029 68.88,114.029 68.997,116.985 C69.242,123.457 69.732,129.749 70.455,135.796 C78.559,136.845 87.224,137.557 96.262,137.895 C100.169,138.041 104.134,138.128 108.169,138.128 C112.192,138.128 116.169,138.04 120.064,137.895 C129.113,137.557 137.772,136.845 145.883,135.796 C146.775,135.682 147.653,135.557 148.542,135.428 C182.296,130.688 205.777,120.196 205.777,108 C205.776,54.088 162.071,10.389 108.168,10.389 Z" id="Shape" fill="#F1606D"></path>
                <path d="M148.541,80.569 C147.562,79.141 146.512,77.773 145.393,76.459 C136.437,65.902 123.096,59.194 108.169,59.194 C103.33,59.194 99.021,66.601 96.262,78.103 C95.166,82.689 94.315,87.922 93.767,93.601 C93.335,98.152 93.102,102.992 93.102,108 C93.102,113.008 93.335,117.849 93.767,122.396 C98.321,122.828 103.154,123.06 108.169,123.06 C113.178,123.06 118.011,122.828 122.565,122.396 C132.576,121.446 141.218,119.521 147.34,116.985 C153.386,114.484 156.964,111.37 156.964,108 C156.963,97.832 153.858,88.388 148.541,80.569 Z" id="Shape" fill="#FFFFFF"></path>
            </g>
            <g id="Group" transform="translate(269.000000, 54.000000)">
                <path d="M47.891,1.053 C60.476,1.053 70.707,7.191 77.153,14.115 L67.089,25.441 C61.736,20.249 55.914,16.946 48.048,16.946 C31.209,16.946 19.095,31.106 19.095,54.237 C19.095,77.685 30.264,91.845 47.415,91.845 C56.543,91.845 63.31,88.07 69.132,81.617 L79.199,92.786 C70.864,102.384 60.161,107.736 47.1,107.736 C20.981,107.736 0.369,88.856 0.369,54.711 C0.37,21.036 21.454,1.053 47.891,1.053 Z" id="Shape" fill="#FFFFFF"></path>
                <path d="M119.961,26.701 C139.313,26.701 156.783,41.494 156.783,67.298 C156.783,92.945 139.312,107.737 119.961,107.737 C100.764,107.737 83.301,92.945 83.301,67.298 C83.301,41.494 100.764,26.701 119.961,26.701 Z M119.961,92.945 C131.291,92.945 138.211,82.717 138.211,67.298 C138.211,51.721 131.291,41.494 119.961,41.494 C108.631,41.494 101.867,51.721 101.867,67.298 C101.867,82.717 108.631,92.945 119.961,92.945 Z" id="Shape" fill="#FFFFFF"></path>
                <path d="M162.771,28.589 L177.714,28.589 L178.974,42.277 L179.603,42.277 C185.109,32.207 193.294,26.7 201.474,26.7 C205.412,26.7 207.929,27.172 210.285,28.274 L207.137,44.008 C204.467,43.224 202.42,42.751 199.119,42.751 C192.98,42.751 185.58,46.996 180.863,58.644 L180.863,105.847 L162.771,105.847 L162.771,28.589 Z" id="Shape" fill="#FFFFFF"></path>
                <path d="M244.121,26.701 C265.049,26.701 276.062,41.808 276.062,63.368 C276.062,66.826 275.748,69.972 275.275,71.863 L226.185,71.863 C227.755,85.866 236.564,93.732 248.996,93.732 C255.609,93.732 261.269,91.691 266.937,88.07 L273.072,99.396 C265.677,104.274 256.396,107.737 246.64,107.737 C225.236,107.737 208.56,92.787 208.56,67.298 C208.561,42.12 226.023,26.701 244.121,26.701 Z M260.326,60.376 C260.326,48.099 255.137,40.705 244.594,40.705 C235.469,40.705 227.598,47.473 226.024,60.376 L260.326,60.376 Z" id="Shape" fill="#FFFFFF"></path>
                <path d="M303.602,53.607 C303.602,20.878 321.387,0.263 346.401,0.263 C371.264,0.263 389.042,20.878 389.042,53.607 C389.042,86.496 371.265,107.737 346.401,107.737 C321.387,107.737 303.602,86.496 303.602,53.607 Z M381.49,53.607 C381.49,24.968 367.332,6.876 346.4,6.876 C325.316,6.876 311.152,24.969 311.152,53.607 C311.152,82.403 325.316,101.128 346.4,101.128 C367.332,101.128 381.49,82.403 381.49,53.607 Z" id="Shape" fill="#F1606D"></path>
                <path d="M402.738,87.125 C410.295,95.62 421.15,101.128 433.267,101.128 C448.999,101.128 459.074,92.629 459.074,80.361 C459.074,67.457 450.58,63.207 440.351,58.644 L424.615,51.562 C415.646,47.626 403.681,41.177 403.681,25.754 C403.681,10.807 416.585,0.262 433.74,0.262 C446.328,0.262 456.398,5.927 462.689,12.697 L458.445,17.575 C452.463,11.123 444.125,6.875 433.74,6.875 C420.049,6.875 410.924,14.114 410.924,25.44 C410.924,37.402 421.309,41.961 428.86,45.425 L444.598,52.346 C456.084,57.541 466.311,63.993 466.311,79.885 C466.311,95.777 453.25,107.736 433.11,107.736 C418.003,107.736 406.36,101.285 398.178,92.16 L402.738,87.125 Z" id="Shape" fill="#53A4D9"></path>
            </g>
        </g>
    </g>
</svg>