<?xml version="1.0" standalone="no"?>
<!DOCTYPE svg PUBLIC "-//W3C//DTD SVG 20010904//EN"
 "http://www.w3.org/TR/2001/REC-SVG-20010904/DTD/svg10.dtd">
<svg version="1.0" xmlns="http://www.w3.org/2000/svg"
 width="520.000000pt" height="520.000000pt" viewBox="0 0 520.000000 520.000000"
 preserveAspectRatio="xMidYMid meet">
<metadata>
Created by potrace 1.14, written by Peter Selinger 2001-2017
</metadata>
<g transform="translate(0.000000,520.000000) scale(0.100000,-0.100000)"
fill="#000000" stroke="none">
<path d="M1372 4202 c-10 -7 -12 -331 -10 -1588 l3 -1579 1225 0 1225 0 3 292
2 293 -862 2 -863 3 0 365 0 365 735 5 735 5 0 280 0 280 -737 3 -738 2 0 340
0 340 833 2 832 3 3 289 c2 225 -1 291 -10 298 -17 10 -2359 10 -2376 0z"/>
</g>
</svg>
